<svg width="14" height="12" viewBox="0 0 14 12" fill="none" xmlns="http://www.w3.org/2000/svg">
<path d="M12.5609 3.14868C12.5698 3.27304 12.5698 3.39743 12.5698 3.52179C12.5698 7.31491 9.68275 11.6855 4.40609 11.6855C2.78045 11.6855 1.27031 11.2147 0 10.3974C0.230973 10.4241 0.453031 10.4329 0.692891 10.4329C2.03424 10.4329 3.26903 9.97992 4.25507 9.20707C2.99365 9.18041 1.93654 8.35428 1.57232 7.21721C1.75 7.24385 1.92765 7.26162 2.11422 7.26162C2.37182 7.26162 2.62946 7.22607 2.86929 7.16392C1.55457 6.8974 0.568504 5.74259 0.568504 4.34793V4.31241C0.950469 4.52561 1.39467 4.65885 1.86545 4.6766C1.0926 4.16136 0.586277 3.28193 0.586277 2.287C0.586277 1.75402 0.728383 1.26544 0.977129 0.839039C2.38957 2.58015 4.51268 3.71719 6.89336 3.84157C6.84895 3.62837 6.82229 3.40632 6.82229 3.18423C6.82229 1.603 8.10149 0.314941 9.69158 0.314941C10.5177 0.314941 11.2639 0.661387 11.788 1.22103C12.4365 1.09667 13.0583 0.856812 13.6091 0.528141C13.3959 1.1944 12.9428 1.75404 12.3477 2.10935C12.9251 2.0472 13.4847 1.88726 13.9999 1.6652C13.6091 2.23371 13.1205 2.74003 12.5609 3.14868Z" fill="white"/>
</svg>
