<svg width="16" height="16" viewBox="0 0 16 16" fill="none" xmlns="http://www.w3.org/2000/svg">
<path d="M15.1805 5.47786L10.8113 4.84174L8.85872 0.889796C8.6832 0.536662 8.34081 0.358154 7.99843 0.358154C7.65813 0.358154 7.31813 0.534274 7.14201 0.889796L5.18887 4.84144L0.819322 5.47696C0.0357402 5.59039 -0.27829 6.55427 0.28977 7.10651L3.45066 10.1811L2.70261 14.5238C2.59634 15.1441 3.09156 15.6417 3.64619 15.6417C3.79335 15.6417 3.9447 15.6068 4.09007 15.5298L7.99902 13.4796L11.9077 15.5304C12.0528 15.6065 12.2038 15.6411 12.3504 15.6411C12.9056 15.6411 13.4017 15.1453 13.2954 14.5247L12.5483 10.1817L15.7098 7.10771C16.2781 6.55547 15.9641 5.59129 15.1805 5.47786ZM11.5465 9.15547L11.0056 9.68144L11.1334 10.4241L11.716 13.8107L8.66738 12.211L7.99932 11.8605L8.00022 2.39218L9.5235 5.47547L9.85723 6.15099L10.6038 6.25965L14.0136 6.75606L11.5465 9.15547Z" fill="#FFB238"/>
</svg>
