<svg width="97" height="11" viewBox="0 0 97 11" fill="none" xmlns="http://www.w3.org/2000/svg">
<mask id="path-1-outside-1_101_199" maskUnits="userSpaceOnUse" x="-1" y="-1" width="100" height="13" fill="black">
<rect fill="white" x="-1" y="-1" width="100" height="13"/>
<path d="M0.00800002 11V0.695999H1.752V11H0.00800002ZM10.6536 11V0.695999H12.1896L17.5656 8.28V0.695999H19.2936V11H17.7576L12.3976 3.432V11H10.6536ZM30.8775 11V2.056H27.5815V0.695999H35.9015V2.056H32.6215V11H30.8775ZM44.1792 11V0.695999H51.3632V2.056H45.9232V5.176H50.7712V6.52H45.9232V9.656H51.3632V11H44.1792ZM59.8561 11V0.695999H64.5921C65.7441 0.695999 66.5815 0.994666 67.1041 1.592C67.6375 2.17867 67.9041 2.97867 67.9041 3.992C67.9041 4.71733 67.7228 5.336 67.3601 5.848C66.9975 6.36 66.4748 6.71733 65.7921 6.92C65.9841 7.05867 66.1335 7.208 66.2401 7.368C66.3468 7.528 66.4535 7.74133 66.5601 8.008L67.8561 11H66.0641L64.8001 8.12C64.6828 7.84267 64.5388 7.64533 64.3681 7.528C64.2081 7.41067 63.9308 7.352 63.5361 7.352H61.6001V11H59.8561ZM61.6001 5.944H64.1281C64.7575 5.944 65.2535 5.78933 65.6161 5.48C65.9788 5.17067 66.1601 4.67467 66.1601 3.992C66.1601 2.70133 65.5361 2.056 64.2881 2.056H61.6001V5.944ZM76.5018 11V0.695999H78.2458V11H76.5018ZM86.8434 11L90.7794 0.695999H92.7314L96.6354 11H94.8434L93.8194 8.344H89.6754L88.6514 11H86.8434ZM89.9474 7H93.5314L91.7394 2.28L89.9474 7Z"/>
</mask>
<path d="M0.00800002 11V0.695999H1.752V11H0.00800002ZM10.6536 11V0.695999H12.1896L17.5656 8.28V0.695999H19.2936V11H17.7576L12.3976 3.432V11H10.6536ZM30.8775 11V2.056H27.5815V0.695999H35.9015V2.056H32.6215V11H30.8775ZM44.1792 11V0.695999H51.3632V2.056H45.9232V5.176H50.7712V6.52H45.9232V9.656H51.3632V11H44.1792ZM59.8561 11V0.695999H64.5921C65.7441 0.695999 66.5815 0.994666 67.1041 1.592C67.6375 2.17867 67.9041 2.97867 67.9041 3.992C67.9041 4.71733 67.7228 5.336 67.3601 5.848C66.9975 6.36 66.4748 6.71733 65.7921 6.92C65.9841 7.05867 66.1335 7.208 66.2401 7.368C66.3468 7.528 66.4535 7.74133 66.5601 8.008L67.8561 11H66.0641L64.8001 8.12C64.6828 7.84267 64.5388 7.64533 64.3681 7.528C64.2081 7.41067 63.9308 7.352 63.5361 7.352H61.6001V11H59.8561ZM61.6001 5.944H64.1281C64.7575 5.944 65.2535 5.78933 65.6161 5.48C65.9788 5.17067 66.1601 4.67467 66.1601 3.992C66.1601 2.70133 65.5361 2.056 64.2881 2.056H61.6001V5.944ZM76.5018 11V0.695999H78.2458V11H76.5018ZM86.8434 11L90.7794 0.695999H92.7314L96.6354 11H94.8434L93.8194 8.344H89.6754L88.6514 11H86.8434ZM89.9474 7H93.5314L91.7394 2.28L89.9474 7Z" fill="white"/>
<path d="M0.00800002 11H-0.992V12H0.00800002V11ZM0.00800002 0.695999V-0.304001H-0.992V0.695999H0.00800002ZM1.752 0.695999H2.752V-0.304001H1.752V0.695999ZM1.752 11V12H2.752V11H1.752ZM1.008 11V0.695999H-0.992V11H1.008ZM0.00800002 1.696H1.752V-0.304001H0.00800002V1.696ZM0.752 0.695999V11H2.752V0.695999H0.752ZM1.752 10H0.00800002V12H1.752V10ZM10.6536 11H9.65363V12H10.6536V11ZM10.6536 0.695999V-0.304001H9.65363V0.695999H10.6536ZM12.1896 0.695999L13.0054 0.117695L12.7065 -0.304001H12.1896V0.695999ZM17.5656 8.28L16.7498 8.8583L18.5656 11.4199V8.28H17.5656ZM17.5656 0.695999V-0.304001H16.5656V0.695999H17.5656ZM19.2936 0.695999H20.2936V-0.304001H19.2936V0.695999ZM19.2936 11V12H20.2936V11H19.2936ZM17.7576 11L16.9416 11.578L17.2405 12H17.7576V11ZM12.3976 3.432L13.2137 2.85403L11.3976 0.289864V3.432H12.3976ZM12.3976 11V12H13.3976V11H12.3976ZM11.6536 11V0.695999H9.65363V11H11.6536ZM10.6536 1.696H12.1896V-0.304001H10.6536V1.696ZM11.3738 1.2743L16.7498 8.8583L18.3814 7.7017L13.0054 0.117695L11.3738 1.2743ZM18.5656 8.28V0.695999H16.5656V8.28H18.5656ZM17.5656 1.696H19.2936V-0.304001H17.5656V1.696ZM18.2936 0.695999V11H20.2936V0.695999H18.2936ZM19.2936 10H17.7576V12H19.2936V10ZM18.5737 10.422L13.2137 2.85403L11.5816 4.00997L16.9416 11.578L18.5737 10.422ZM11.3976 3.432V11H13.3976V3.432H11.3976ZM12.3976 10H10.6536V12H12.3976V10ZM30.8775 11H29.8775V12H30.8775V11ZM30.8775 2.056H31.8775V1.056H30.8775V2.056ZM27.5815 2.056H26.5815V3.056H27.5815V2.056ZM27.5815 0.695999V-0.304001H26.5815V0.695999H27.5815ZM35.9015 0.695999H36.9015V-0.304001H35.9015V0.695999ZM35.9015 2.056V3.056H36.9015V2.056H35.9015ZM32.6215 2.056V1.056H31.6215V2.056H32.6215ZM32.6215 11V12H33.6215V11H32.6215ZM31.8775 11V2.056H29.8775V11H31.8775ZM30.8775 1.056H27.5815V3.056H30.8775V1.056ZM28.5815 2.056V0.695999H26.5815V2.056H28.5815ZM27.5815 1.696H35.9015V-0.304001H27.5815V1.696ZM34.9015 0.695999V2.056H36.9015V0.695999H34.9015ZM35.9015 1.056H32.6215V3.056H35.9015V1.056ZM31.6215 2.056V11H33.6215V2.056H31.6215ZM32.6215 10H30.8775V12H32.6215V10ZM44.1792 11H43.1792V12H44.1792V11ZM44.1792 0.695999V-0.304001H43.1792V0.695999H44.1792ZM51.3632 0.695999H52.3632V-0.304001H51.3632V0.695999ZM51.3632 2.056V3.056H52.3632V2.056H51.3632ZM45.9232 2.056V1.056H44.9232V2.056H45.9232ZM45.9232 5.176H44.9232V6.176H45.9232V5.176ZM50.7712 5.176H51.7712V4.176H50.7712V5.176ZM50.7712 6.52V7.52H51.7712V6.52H50.7712ZM45.9232 6.52V5.52H44.9232V6.52H45.9232ZM45.9232 9.656H44.9232V10.656H45.9232V9.656ZM51.3632 9.656H52.3632V8.656H51.3632V9.656ZM51.3632 11V12H52.3632V11H51.3632ZM45.1792 11V0.695999H43.1792V11H45.1792ZM44.1792 1.696H51.3632V-0.304001H44.1792V1.696ZM50.3632 0.695999V2.056H52.3632V0.695999H50.3632ZM51.3632 1.056H45.9232V3.056H51.3632V1.056ZM44.9232 2.056V5.176H46.9232V2.056H44.9232ZM45.9232 6.176H50.7712V4.176H45.9232V6.176ZM49.7712 5.176V6.52H51.7712V5.176H49.7712ZM50.7712 5.52H45.9232V7.52H50.7712V5.52ZM44.9232 6.52V9.656H46.9232V6.52H44.9232ZM45.9232 10.656H51.3632V8.656H45.9232V10.656ZM50.3632 9.656V11H52.3632V9.656H50.3632ZM51.3632 10H44.1792V12H51.3632V10ZM59.8561 11H58.8561V12H59.8561V11ZM59.8561 0.695999V-0.304001H58.8561V0.695999H59.8561ZM67.1041 1.592L66.3515 2.2505L66.3578 2.25765L66.3642 2.26467L67.1041 1.592ZM67.3601 5.848L66.5441 5.26998L66.5441 5.26998L67.3601 5.848ZM65.7921 6.92L65.5075 5.96135L63.5581 6.54008L65.2066 7.73068L65.7921 6.92ZM66.2401 7.368L65.4081 7.9227L65.4081 7.9227L66.2401 7.368ZM66.5601 8.008L65.6316 8.37939L65.6369 8.39251L65.6425 8.40547L66.5601 8.008ZM67.8561 11V12H69.3791L68.7737 10.6025L67.8561 11ZM66.0641 11L65.1484 11.4019L65.4109 12H66.0641V11ZM64.8001 8.12L63.8791 8.50967L63.8844 8.52189L64.8001 8.12ZM64.3681 7.528L63.7768 8.3344L63.789 8.34341L63.8016 8.35204L64.3681 7.528ZM61.6001 7.352V6.352H60.6001V7.352H61.6001ZM61.6001 11V12H62.6001V11H61.6001ZM61.6001 5.944H60.6001V6.944H61.6001V5.944ZM65.6161 5.48L64.9672 4.71917L64.9672 4.71917L65.6161 5.48ZM61.6001 2.056V1.056H60.6001V2.056H61.6001ZM60.8561 11V0.695999H58.8561V11H60.8561ZM59.8561 1.696H64.5921V-0.304001H59.8561V1.696ZM64.5921 1.696C65.5889 1.696 66.0917 1.9535 66.3515 2.2505L67.8567 0.933496C67.0712 0.0358277 65.8994 -0.304001 64.5921 -0.304001V1.696ZM66.3642 2.26467C66.6876 2.62045 66.9041 3.15594 66.9041 3.992H68.9041C68.9041 2.8014 68.5873 1.73689 67.8441 0.919327L66.3642 2.26467ZM66.9041 3.992C66.9041 4.54365 66.7691 4.9523 66.5441 5.26998L68.1761 6.42602C68.6765 5.7197 68.9041 4.89102 68.9041 3.992H66.9041ZM66.5441 5.26998C66.3282 5.57479 66.0059 5.8134 65.5075 5.96135L66.0767 7.87865C66.9437 7.62127 67.6667 7.14521 68.1762 6.42602L66.5441 5.26998ZM65.2066 7.73068C65.3235 7.81506 65.381 7.88209 65.4081 7.9227L67.0722 6.8133C66.8859 6.53391 66.6448 6.30227 66.3776 6.10932L65.2066 7.73068ZM65.4081 7.9227C65.4625 8.00439 65.5394 8.14882 65.6316 8.37939L67.4886 7.63661C67.3675 7.33385 67.231 7.05161 67.0722 6.8133L65.4081 7.9227ZM65.6425 8.40547L66.9385 11.3975L68.7737 10.6025L67.4777 7.61053L65.6425 8.40547ZM67.8561 10H66.0641V12H67.8561V10ZM66.9798 10.5981L65.7158 7.71811L63.8844 8.52189L65.1484 11.4019L66.9798 10.5981ZM65.7211 7.73036C65.5613 7.35278 65.3185 6.96786 64.9347 6.70396L63.8016 8.35204C63.7788 8.33638 63.7793 8.33007 63.7963 8.35347C63.814 8.37771 63.8438 8.42604 63.8792 8.50964L65.7211 7.73036ZM64.9595 6.72159C64.5262 6.40387 63.9675 6.352 63.5361 6.352V8.352C63.6888 8.352 63.7832 8.36378 63.8332 8.37435C63.8881 8.38597 63.8493 8.38763 63.7768 8.3344L64.9595 6.72159ZM63.5361 6.352H61.6001V8.352H63.5361V6.352ZM60.6001 7.352V11H62.6001V7.352H60.6001ZM61.6001 10H59.8561V12H61.6001V10ZM61.6001 6.944H64.1281V4.944H61.6001V6.944ZM64.1281 6.944C64.9182 6.944 65.6703 6.74815 66.2651 6.24083L64.9672 4.71917C64.8366 4.83051 64.5968 4.944 64.1281 4.944V6.944ZM66.2651 6.24083C66.9337 5.67055 67.1601 4.83681 67.1601 3.992H65.1601C65.1601 4.51252 65.0239 4.67078 64.9672 4.71917L66.2651 6.24083ZM67.1601 3.992C67.1601 3.20078 66.9692 2.42219 66.411 1.84488C65.8467 1.2613 65.075 1.056 64.2881 1.056V3.056C64.7493 3.056 64.9135 3.17336 64.9732 3.23512C65.039 3.30314 65.1601 3.49255 65.1601 3.992H67.1601ZM64.2881 1.056H61.6001V3.056H64.2881V1.056ZM60.6001 2.056V5.944H62.6001V2.056H60.6001ZM76.5018 11H75.5018V12H76.5018V11ZM76.5018 0.695999V-0.304001H75.5018V0.695999H76.5018ZM78.2458 0.695999H79.2458V-0.304001H78.2458V0.695999ZM78.2458 11V12H79.2458V11H78.2458ZM77.5018 11V0.695999H75.5018V11H77.5018ZM76.5018 1.696H78.2458V-0.304001H76.5018V1.696ZM77.2458 0.695999V11H79.2458V0.695999H77.2458ZM78.2458 10H76.5018V12H78.2458V10ZM86.8434 11L85.9092 10.6432L85.3909 12H86.8434V11ZM90.7794 0.695999V-0.304001H90.0909L89.8452 0.339159L90.7794 0.695999ZM92.7314 0.695999L93.6665 0.341695L93.4219 -0.304001H92.7314V0.695999ZM96.6354 11V12H98.0836L97.5705 10.6457L96.6354 11ZM94.8434 11L93.9103 11.3597L94.1572 12H94.8434V11ZM93.8194 8.344L94.7524 7.98427L94.5056 7.344H93.8194V8.344ZM89.6754 8.344V7.344H88.9892L88.7423 7.98427L89.6754 8.344ZM88.6514 11V12H89.3376L89.5844 11.3597L88.6514 11ZM89.9474 7L89.0125 6.64506L88.4981 8H89.9474V7ZM93.5314 7V8H94.9807L94.4663 6.64506L93.5314 7ZM91.7394 2.28L92.6743 1.92506L91.7394 -0.537371L90.8045 1.92506L91.7394 2.28ZM87.7775 11.3568L91.7135 1.05284L89.8452 0.339159L85.9092 10.6432L87.7775 11.3568ZM90.7794 1.696H92.7314V-0.304001H90.7794V1.696ZM91.7962 1.0503L95.7002 11.3543L97.5705 10.6457L93.6665 0.341695L91.7962 1.0503ZM96.6354 10H94.8434V12H96.6354V10ZM95.7764 10.6403L94.7524 7.98427L92.8863 8.70373L93.9103 11.3597L95.7764 10.6403ZM93.8194 7.344H89.6754V9.344H93.8194V7.344ZM88.7423 7.98427L87.7183 10.6403L89.5844 11.3597L90.6084 8.70373L88.7423 7.98427ZM88.6514 10H86.8434V12H88.6514V10ZM89.9474 8H93.5314V6H89.9474V8ZM94.4663 6.64506L92.6743 1.92506L90.8045 2.63494L92.5965 7.35494L94.4663 6.64506ZM90.8045 1.92506L89.0125 6.64506L90.8823 7.35494L92.6743 2.63494L90.8045 1.92506Z" fill="black" mask="url(#path-1-outside-1_101_199)"/>
</svg>
